<mxfile host="65bd71144e">
    <diagram id="IjiTmnJwu6j2XZqDibwr" name="Page-1">
        <mxGraphModel dx="797" dy="3112" grid="1" gridSize="10" guides="1" tooltips="1" connect="1" arrows="1" fold="1" page="1" pageScale="1" pageWidth="850" pageHeight="1100" math="0" shadow="0">
            <root>
                <mxCell id="0"/>
                <mxCell id="1" parent="0"/>
                <mxCell id="96" value="" style="shape=ext;double=1;rounded=0;whiteSpace=wrap;html=1;fontSize=10;" parent="1" vertex="1">
                    <mxGeometry x="185" y="-1598" width="480" height="960" as="geometry"/>
                </mxCell>
                <mxCell id="88" value="" style="shape=ext;double=1;rounded=0;whiteSpace=wrap;html=1;fontSize=10;" parent="1" vertex="1">
                    <mxGeometry x="255" y="-2120" width="340" height="480" as="geometry"/>
                </mxCell>
                <mxCell id="19" value="End" style="ellipse;whiteSpace=wrap;html=1;" parent="1" vertex="1">
                    <mxGeometry x="447.5" y="-1720" width="75" height="50" as="geometry"/>
                </mxCell>
                <mxCell id="41" value="" style="edgeStyle=none;html=1;fontSize=12;exitX=0.5;exitY=1;exitDx=0;exitDy=0;" parent="1" source="56" target="19" edge="1">
                    <mxGeometry relative="1" as="geometry">
                        <mxPoint x="485" y="-1340" as="sourcePoint"/>
                    </mxGeometry>
                </mxCell>
                <mxCell id="49" value="" style="edgeStyle=none;html=1;entryX=0.5;entryY=0;entryDx=0;entryDy=0;" parent="1" source="48" target="50" edge="1">
                    <mxGeometry relative="1" as="geometry">
                        <mxPoint x="489.945652173913" y="-1930" as="targetPoint"/>
                    </mxGeometry>
                </mxCell>
                <mxCell id="48" value="Entry" style="ellipse;whiteSpace=wrap;html=1;" parent="1" vertex="1">
                    <mxGeometry x="447.5" y="-2055" width="75" height="50" as="geometry"/>
                </mxCell>
                <mxCell id="55" value="" style="edgeStyle=none;html=1;exitX=0.5;exitY=1;exitDx=0;exitDy=0;entryX=0.5;entryY=0;entryDx=0;entryDy=0;" parent="1" source="58" target="54" edge="1">
                    <mxGeometry relative="1" as="geometry">
                        <mxPoint x="380" y="-1390" as="targetPoint"/>
                    </mxGeometry>
                </mxCell>
                <mxCell id="60" value="" style="edgeStyle=none;html=1;exitX=0;exitY=0;exitDx=0;exitDy=0;entryX=0;entryY=0;entryDx=110;entryDy=65;entryPerimeter=0;" parent="1" source="50" target="59" edge="1">
                    <mxGeometry relative="1" as="geometry"/>
                </mxCell>
                <mxCell id="50" value="Menu" style="shape=process;whiteSpace=wrap;html=1;backgroundOutline=1;" parent="1" vertex="1">
                    <mxGeometry x="425" y="-1960" width="120" height="60" as="geometry"/>
                </mxCell>
                <mxCell id="57" value="" style="edgeStyle=none;html=1;" parent="1" source="50" target="56" edge="1">
                    <mxGeometry relative="1" as="geometry">
                        <mxPoint x="485" y="-1900" as="sourcePoint"/>
                    </mxGeometry>
                </mxCell>
                <mxCell id="66" value="" style="edgeStyle=none;html=1;fontSize=10;" parent="1" source="54" target="65" edge="1">
                    <mxGeometry relative="1" as="geometry"/>
                </mxCell>
                <mxCell id="54" value="Leer&lt;br&gt;file_path" style="shape=parallelogram;perimeter=parallelogramPerimeter;whiteSpace=wrap;html=1;fixedSize=1;" parent="1" vertex="1">
                    <mxGeometry x="310" y="-1420" width="120" height="40" as="geometry"/>
                </mxCell>
                <mxCell id="56" value="read_files()" style="shape=process;whiteSpace=wrap;html=1;backgroundOutline=1;" parent="1" vertex="1">
                    <mxGeometry x="425" y="-1839" width="120" height="60" as="geometry"/>
                </mxCell>
                <mxCell id="58" value="Entry" style="ellipse;whiteSpace=wrap;html=1;" parent="1" vertex="1">
                    <mxGeometry x="330" y="-1525" width="80" height="50" as="geometry"/>
                </mxCell>
                <mxCell id="59" value="&lt;font style=&quot;font-size: 10px;&quot;&gt;Funci칩n implementada en el diagrama general&lt;/font&gt;" style="shape=note;whiteSpace=wrap;html=1;backgroundOutline=1;darkOpacity=0.05;" parent="1" vertex="1">
                    <mxGeometry x="275" y="-2080" width="110" height="100" as="geometry"/>
                </mxCell>
                <mxCell id="62" value="" style="edgeStyle=none;html=1;fontSize=10;exitX=0;exitY=0;exitDx=0;exitDy=0;entryX=1.009;entryY=0.543;entryDx=0;entryDy=0;entryPerimeter=0;" parent="1" source="56" target="61" edge="1">
                    <mxGeometry relative="1" as="geometry"/>
                </mxCell>
                <mxCell id="61" value="&lt;font style=&quot;font-size: 10px;&quot;&gt;&lt;br&gt;Funci칩n para obtener la lista de im치genes en un dirrectorio&amp;nbsp;&lt;/font&gt;" style="shape=note;whiteSpace=wrap;html=1;backgroundOutline=1;darkOpacity=0.05;" parent="1" vertex="1">
                    <mxGeometry x="275" y="-1939" width="110" height="100" as="geometry"/>
                </mxCell>
                <mxCell id="63" value="&lt;font style=&quot;font-size: 10px;&quot;&gt;Funci칩n: &lt;br&gt;read_files()&lt;/font&gt;" style="shape=note;whiteSpace=wrap;html=1;backgroundOutline=1;darkOpacity=0.05;" parent="1" vertex="1">
                    <mxGeometry x="500" y="-1550" width="110" height="100" as="geometry"/>
                </mxCell>
                <mxCell id="70" value="" style="edgeStyle=none;html=1;fontSize=10;startArrow=none;" parent="1" source="71" target="69" edge="1">
                    <mxGeometry relative="1" as="geometry"/>
                </mxCell>
                <mxCell id="65" value="image&lt;br&gt;in&lt;br&gt;os.listdir" style="rhombus;whiteSpace=wrap;html=1;" parent="1" vertex="1">
                    <mxGeometry x="325" y="-1340" width="90" height="89" as="geometry"/>
                </mxCell>
                <mxCell id="74" value="" style="edgeStyle=none;html=1;fontSize=10;exitX=1;exitY=0.5;exitDx=0;exitDy=0;entryX=0.5;entryY=0;entryDx=0;entryDy=0;" parent="1" source="69" target="82" edge="1">
                    <mxGeometry relative="1" as="geometry">
                        <mxPoint x="485" y="-1070" as="targetPoint"/>
                        <Array as="points">
                            <mxPoint x="465" y="-1125"/>
                        </Array>
                    </mxGeometry>
                </mxCell>
                <mxCell id="69" value="&lt;span style=&quot;font-size: 10px;&quot;&gt;Is image?&lt;/span&gt;" style="rhombus;whiteSpace=wrap;html=1;" parent="1" vertex="1">
                    <mxGeometry x="322.5" y="-1180" width="95" height="110" as="geometry"/>
                </mxCell>
                <mxCell id="72" value="" style="edgeStyle=none;html=1;fontSize=10;endArrow=none;" parent="1" source="65" target="71" edge="1">
                    <mxGeometry relative="1" as="geometry">
                        <mxPoint x="370" y="-1251" as="sourcePoint"/>
                        <mxPoint x="370" y="-1190" as="targetPoint"/>
                    </mxGeometry>
                </mxCell>
                <mxCell id="71" value="&lt;b&gt;&lt;font style=&quot;font-size: 14px;&quot;&gt;Si&lt;/font&gt;&lt;/b&gt;" style="text;html=1;align=center;verticalAlign=middle;resizable=0;points=[];autosize=1;strokeColor=none;fillColor=none;fontSize=10;" parent="1" vertex="1">
                    <mxGeometry x="350" y="-1239" width="40" height="30" as="geometry"/>
                </mxCell>
                <mxCell id="77" value="&lt;b&gt;&lt;font style=&quot;font-size: 14px;&quot;&gt;Si&lt;/font&gt;&lt;/b&gt;" style="text;html=1;align=center;verticalAlign=middle;resizable=0;points=[];autosize=1;strokeColor=none;fillColor=none;fontSize=10;" parent="1" vertex="1">
                    <mxGeometry x="415" y="-1155" width="40" height="30" as="geometry"/>
                </mxCell>
                <mxCell id="79" value="&lt;b&gt;&lt;font style=&quot;font-size: 14px;&quot;&gt;No&lt;/font&gt;&lt;/b&gt;" style="text;html=1;align=center;verticalAlign=middle;resizable=0;points=[];autosize=1;strokeColor=none;fillColor=none;fontSize=10;" parent="1" vertex="1">
                    <mxGeometry x="282.5" y="-1155" width="40" height="30" as="geometry"/>
                </mxCell>
                <mxCell id="81" value="" style="endArrow=none;html=1;fontSize=10;entryX=0;entryY=0.5;entryDx=0;entryDy=0;" parent="1" target="69" edge="1">
                    <mxGeometry width="50" height="50" relative="1" as="geometry">
                        <mxPoint x="455" y="-860" as="sourcePoint"/>
                        <mxPoint x="205" y="-1190" as="targetPoint"/>
                        <Array as="points">
                            <mxPoint x="455" y="-820"/>
                            <mxPoint x="275" y="-820"/>
                            <mxPoint x="275" y="-1125"/>
                        </Array>
                    </mxGeometry>
                </mxCell>
                <mxCell id="84" value="" style="edgeStyle=none;html=1;fontSize=10;exitX=1;exitY=0.5;exitDx=0;exitDy=0;entryX=0.5;entryY=0;entryDx=0;entryDy=0;" parent="1" source="82" target="90" edge="1">
                    <mxGeometry relative="1" as="geometry">
                        <mxPoint x="555" y="-940" as="targetPoint"/>
                        <Array as="points">
                            <mxPoint x="555" y="-1005"/>
                        </Array>
                    </mxGeometry>
                </mxCell>
                <mxCell id="82" value="&lt;span style=&quot;font-size: 10px;&quot;&gt;is a .png file&lt;/span&gt;" style="rhombus;whiteSpace=wrap;html=1;" parent="1" vertex="1">
                    <mxGeometry x="417.5" y="-1060" width="95" height="110" as="geometry"/>
                </mxCell>
                <mxCell id="89" value="" style="endArrow=none;html=1;fontSize=10;entryX=0;entryY=0.5;entryDx=0;entryDy=0;exitX=0.5;exitY=1;exitDx=0;exitDy=0;" parent="1" source="90" target="82" edge="1">
                    <mxGeometry width="50" height="50" relative="1" as="geometry">
                        <mxPoint x="555" y="-885" as="sourcePoint"/>
                        <mxPoint x="402.5" y="-1000" as="targetPoint"/>
                        <Array as="points">
                            <mxPoint x="555" y="-860"/>
                            <mxPoint x="365" y="-860"/>
                            <mxPoint x="365" y="-1005"/>
                        </Array>
                    </mxGeometry>
                </mxCell>
                <mxCell id="90" value="&lt;font style=&quot;font-size: 10px;&quot;&gt;print image&lt;br&gt;&lt;/font&gt;" style="shape=parallelogram;perimeter=parallelogramPerimeter;whiteSpace=wrap;html=1;fixedSize=1;fontSize=14;" parent="1" vertex="1">
                    <mxGeometry x="487.5" y="-960" width="135" height="60" as="geometry"/>
                </mxCell>
                <mxCell id="91" value="&lt;b&gt;&lt;font style=&quot;font-size: 14px;&quot;&gt;Si&lt;/font&gt;&lt;/b&gt;" style="text;html=1;align=center;verticalAlign=middle;resizable=0;points=[];autosize=1;strokeColor=none;fillColor=none;fontSize=10;" parent="1" vertex="1">
                    <mxGeometry x="512.5" y="-1030" width="40" height="30" as="geometry"/>
                </mxCell>
                <mxCell id="92" value="&lt;b&gt;&lt;font style=&quot;font-size: 14px;&quot;&gt;No&lt;/font&gt;&lt;/b&gt;" style="text;html=1;align=center;verticalAlign=middle;resizable=0;points=[];autosize=1;strokeColor=none;fillColor=none;fontSize=10;" parent="1" vertex="1">
                    <mxGeometry x="370" y="-1030" width="40" height="30" as="geometry"/>
                </mxCell>
                <mxCell id="98" value="" style="endArrow=classic;html=1;fontSize=14;" parent="1" edge="1">
                    <mxGeometry width="50" height="50" relative="1" as="geometry">
                        <mxPoint x="365" y="-820" as="sourcePoint"/>
                        <mxPoint x="365" y="-1360" as="targetPoint"/>
                        <Array as="points">
                            <mxPoint x="365" y="-790"/>
                            <mxPoint x="245" y="-790"/>
                            <mxPoint x="245" y="-1360"/>
                        </Array>
                    </mxGeometry>
                </mxCell>
                <mxCell id="99" value="End" style="ellipse;whiteSpace=wrap;html=1;" parent="1" vertex="1">
                    <mxGeometry x="330" y="-710" width="80" height="50" as="geometry"/>
                </mxCell>
                <mxCell id="100" value="" style="endArrow=classic;html=1;fontSize=14;exitX=1;exitY=0.5;exitDx=0;exitDy=0;entryX=0.5;entryY=0;entryDx=0;entryDy=0;" parent="1" source="65" target="99" edge="1">
                    <mxGeometry width="50" height="50" relative="1" as="geometry">
                        <mxPoint x="200" y="-1240" as="sourcePoint"/>
                        <mxPoint x="250" y="-1290" as="targetPoint"/>
                        <Array as="points">
                            <mxPoint x="640" y="-1295"/>
                            <mxPoint x="640" y="-750"/>
                            <mxPoint x="370" y="-750"/>
                        </Array>
                    </mxGeometry>
                </mxCell>
                <mxCell id="123" value="&lt;b&gt;&lt;font style=&quot;font-size: 14px;&quot;&gt;No&lt;/font&gt;&lt;/b&gt;" style="text;html=1;align=center;verticalAlign=middle;resizable=0;points=[];autosize=1;strokeColor=none;fillColor=none;fontSize=10;" parent="1" vertex="1">
                    <mxGeometry x="492" y="-1320" width="40" height="30" as="geometry"/>
                </mxCell>
            </root>
        </mxGraphModel>
    </diagram>
</mxfile>